<mxfile host="app.diagrams.net" modified="2024-02-17T16:38:03.860Z" agent="Mozilla/5.0 (Windows NT 10.0; Win64; x64) AppleWebKit/537.36 (KHTML, like Gecko) Chrome/121.0.0.0 Safari/537.36" etag="tb33y7BJZhXcy2yQrL1z" version="23.1.5" type="device">
  <diagram name="PÃ¡gina-1" id="fzh6Wcsw_fi3Hi2aWo8J">
    <mxGraphModel dx="1335" dy="721" grid="1" gridSize="10" guides="1" tooltips="1" connect="1" arrows="1" fold="1" page="1" pageScale="1" pageWidth="827" pageHeight="1169" math="0" shadow="0">
      <root>
        <mxCell id="0" />
        <mxCell id="1" parent="0" />
        <mxCell id="VmDXQsLGyN3LRxVBO-8l-1" value="Temperatura" style="swimlane;fontStyle=1;align=center;verticalAlign=top;childLayout=stackLayout;horizontal=1;startSize=26;horizontalStack=0;resizeParent=1;resizeParentMax=0;resizeLast=0;collapsible=1;marginBottom=0;whiteSpace=wrap;html=1;fontSize=16;fillColor=#f0a30a;strokeColor=#BD7000;fontColor=#000000;" parent="1" vertex="1">
          <mxGeometry x="180" y="120" width="320" height="290" as="geometry" />
        </mxCell>
        <mxCell id="VmDXQsLGyN3LRxVBO-8l-2" value="- min: double&lt;br&gt;- max: double" style="text;strokeColor=none;fillColor=none;align=left;verticalAlign=top;spacingLeft=4;spacingRight=4;overflow=hidden;rotatable=0;points=[[0,0.5],[1,0.5]];portConstraint=eastwest;whiteSpace=wrap;html=1;fontSize=16;" parent="VmDXQsLGyN3LRxVBO-8l-1" vertex="1">
          <mxGeometry y="26" width="320" height="65" as="geometry" />
        </mxCell>
        <mxCell id="VmDXQsLGyN3LRxVBO-8l-3" value="" style="line;strokeWidth=1;fillColor=none;align=left;verticalAlign=middle;spacingTop=-1;spacingLeft=3;spacingRight=3;rotatable=0;labelPosition=right;points=[];portConstraint=eastwest;strokeColor=inherit;fontSize=16;" parent="VmDXQsLGyN3LRxVBO-8l-1" vertex="1">
          <mxGeometry y="91" width="320" height="8" as="geometry" />
        </mxCell>
        <mxCell id="VmDXQsLGyN3LRxVBO-8l-4" value="&lt;div&gt;&lt;span style=&quot;background-color: initial;&quot;&gt;+Temperatura(double min, double max)&lt;/span&gt;&lt;br&gt;&lt;/div&gt;&lt;div&gt;&lt;br&gt;&lt;/div&gt;&lt;div&gt;+ getMin()&lt;/div&gt;&lt;div&gt;+ getMax()&lt;/div&gt;&lt;div&gt;+ setMin(double min)&amp;nbsp;&lt;/div&gt;&lt;div&gt;+ setMax(double max)&lt;br&gt;&lt;/div&gt;&lt;div&gt;&lt;span style=&quot;background-color: initial;&quot;&gt;&lt;br&gt;&lt;/span&gt;&lt;/div&gt;&lt;div&gt;&lt;span style=&quot;background-color: initial;&quot;&gt;+ toString(): String&amp;nbsp; &amp;nbsp; &amp;nbsp; &amp;nbsp; &amp;nbsp; &amp;nbsp; &amp;nbsp; &amp;nbsp; &amp;nbsp;&lt;/span&gt;&lt;br&gt;&lt;/div&gt;&lt;div&gt;&lt;br&gt;&lt;/div&gt;" style="text;strokeColor=none;fillColor=none;align=left;verticalAlign=top;spacingLeft=4;spacingRight=4;overflow=hidden;rotatable=0;points=[[0,0.5],[1,0.5]];portConstraint=eastwest;whiteSpace=wrap;html=1;fontSize=16;" parent="VmDXQsLGyN3LRxVBO-8l-1" vertex="1">
          <mxGeometry y="99" width="320" height="191" as="geometry" />
        </mxCell>
      </root>
    </mxGraphModel>
  </diagram>
</mxfile>
